<?xml version="1.0" encoding="UTF-8" standalone="no"?>
<svg
   xmlns:dc="http://purl.org/dc/elements/1.1/"
   xmlns:cc="http://creativecommons.org/ns#"
   xmlns:rdf="http://www.w3.org/1999/02/22-rdf-syntax-ns#"
   xmlns:svg="http://www.w3.org/2000/svg"
   xmlns="http://www.w3.org/2000/svg"
   viewBox="0 0 791.25 285"
   height="285"
   width="791.25"
   xml:space="preserve"
   version="1.1"
   id="svg2"><metadata
     id="metadata8"><rdf:RDF><cc:Work
         rdf:about=""><dc:format>image/svg+xml</dc:format><dc:type
           rdf:resource="http://purl.org/dc/dcmitype/StillImage" /></cc:Work></rdf:RDF></metadata><defs
     id="defs6"><clipPath
       id="clipPath18"
       clipPathUnits="userSpaceOnUse"><path
         id="path20"
         d="M 0,0 633,0 633,228 0,228 0,0 Z" /></clipPath><clipPath
       id="clipPath30"
       clipPathUnits="userSpaceOnUse"><path
         style="clip-rule:evenodd"
         id="path32"
         d="m 558,170.0263 -6.2482,-5.6539 -8.7781,-1.8592 2.5298,-7.5132 -2.5298,-7.5131 8.7781,-1.8592 6.2482,-5.654 6.2482,5.654 8.7781,1.8592 -2.5299,7.5131 2.5299,7.5132 -8.7781,1.8592 L 558,170.0263 Z M 558,175 566.3164,167.4746 578,165 574.6328,155 578,145 566.3164,142.5254 558,135 549.6836,142.5254 538,145 541.3672,155 538,165 549.6836,167.4746 558,175 Z" /></clipPath><clipPath
       id="clipPath36"
       clipPathUnits="userSpaceOnUse"><path
         id="path38"
         d="M 0,0 633,0 633,228 0,228 0,0 Z" /></clipPath><radialGradient
       id="radialGradient42"
       spreadMethod="pad"
       gradientTransform="matrix(7.874016e-5,0,0,-7.874016e-5,538,175)"
       gradientUnits="userSpaceOnUse"
       r="359210.19"
       cy="254000"
       cx="254000"
       fy="254000"
       fx="254000"><stop
         id="stop44"
         offset="0"
         style="stop-opacity:1;stop-color:#9dc3e6" /><stop
         id="stop46"
         offset="1"
         style="stop-opacity:1;stop-color:#43682b" /></radialGradient><clipPath
       id="clipPath54"
       clipPathUnits="userSpaceOnUse"><path
         id="path56"
         d="M 0,0 633,0 633,228 0,228 0,0 Z" /></clipPath><clipPath
       id="clipPath64"
       clipPathUnits="userSpaceOnUse"><path
         style="clip-rule:evenodd"
         id="path66"
         d="M 556,210.0947 533.5064,189.7405 501.9053,183.0474 511.0128,156 501.9053,128.9527 533.5064,122.2596 556,101.9054 l 22.4935,20.3542 31.6011,6.6931 -9.1074,27.0473 9.1074,27.0474 -31.6011,6.6931 L 556,210.0947 Z M 556,228 585.939,200.9085 628,192 615.878,156 628,120 585.939,111.0915 556,84 526.061,111.0915 484,120 496.122,156 484,192 526.061,200.9085 556,228 Z" /></clipPath><clipPath
       id="clipPath70"
       clipPathUnits="userSpaceOnUse"><path
         id="path72"
         d="M 0,0 633,0 633,228 0,228 0,0 Z" /></clipPath><radialGradient
       id="radialGradient76"
       spreadMethod="pad"
       gradientTransform="matrix(7.874016e-5,0,0,-7.874016e-5,484,228)"
       gradientUnits="userSpaceOnUse"
       r="1293157"
       cy="914400.12"
       cx="914400.12"
       fy="914400"
       fx="914400"><stop
         id="stop78"
         offset="0"
         style="stop-opacity:1;stop-color:#9dc3e6" /><stop
         id="stop80"
         offset="1"
         style="stop-opacity:1;stop-color:#43682b" /></radialGradient><clipPath
       id="clipPath88"
       clipPathUnits="userSpaceOnUse"><path
         id="path90"
         d="m 40.87168,164.7158 22.59297,0 0,-70.2529 33.37598,0 0,70.2529 22.59297,0 0,-159.644505 -22.59297,0 0,70.252935 -33.37598,0 0,-70.252935 -22.59297,0 0,159.644505 z" /></clipPath><clipPath
       id="clipPath94"
       clipPathUnits="userSpaceOnUse"><path
         id="path96"
         d="M 0,0 633,0 633,228 0,228 0,0 Z" /></clipPath><linearGradient
       id="linearGradient100"
       gradientTransform="matrix(7.874016e-5,0,0,-7.874016e-5,0.3058268,167.4593)"
       gradientUnits="userSpaceOnUse"
       y2="3763595"
       x2="4696117"
       y1="-1635380"
       x1="2731051"><stop
         id="stop102"
         offset="0"
         style="stop-opacity:1;stop-color:#000000" /><stop
         id="stop104"
         offset="1"
         style="stop-opacity:1;stop-color:#9dc3e6" /></linearGradient><clipPath
       id="clipPath112"
       clipPathUnits="userSpaceOnUse"><path
         id="path114"
         d="M 0,0 633,0 633,228 0,228 0,0 Z" /></clipPath><clipPath
       id="clipPath132"
       clipPathUnits="userSpaceOnUse"><path
         style="clip-rule:evenodd"
         id="path134"
         d="m 557.5,183.55 -12.0278,-10.7425 -16.8979,-3.5325 4.87,-14.275 -4.87,-14.275 16.8979,-3.5324 12.0278,-10.7426 12.0278,10.7426 16.8978,3.5324 -4.87,14.275 4.87,14.275 -16.8978,3.5325 L 557.5,183.55 Z m 0,9.45 16.009,-14.2983 L 596,174 589.5181,155 596,136 573.509,131.2983 557.5,117 541.491,131.2983 519,136 525.4819,155 519,174 541.491,178.7017 557.5,193 Z" /></clipPath><radialGradient
       id="radialGradient144"
       spreadMethod="pad"
       gradientTransform="matrix(7.874016e-5,0,0,-7.874016e-5,519,193)"
       gradientUnits="userSpaceOnUse"
       r="687004.19"
       cy="482600"
       cx="488950"
       fy="482600"
       fx="488950"><stop
         id="stop146"
         offset="0"
         style="stop-opacity:1;stop-color:#9dc3e6" /><stop
         id="stop148"
         offset="1"
         style="stop-opacity:1;stop-color:#43682b" /></radialGradient></defs><g
     transform="matrix(1.25,0,0,-1.25,0,285)"
     id="g10"><g
       id="g12" /><g
       id="g14"><g
         clip-path="url(#clipPath18)"
         id="g16"><path
           id="path22"
           style="fill:#ffffff;fill-opacity:0;fill-rule:nonzero;stroke:none"
           d="M 0,228 633,228 633,0 0,0 0,228 Z" /><path
           id="path24"
           style="fill:#bfbfbf;fill-opacity:1;fill-rule:evenodd;stroke:none"
           d="m 559,169.0263 -6.2482,-5.6539 -8.7781,-1.8592 2.5298,-7.5132 -2.5298,-7.5131 8.7781,-1.8592 6.2482,-5.654 6.2482,5.654 8.7781,1.8592 -2.5299,7.5131 2.5299,7.5132 -8.7781,1.8592 L 559,169.0263 Z M 559,174 567.3164,166.4746 579,164 575.6328,154 579,144 567.3164,141.5254 559,134 550.6836,141.5254 539,144 542.3672,154 539,164 550.6836,166.4746 559,174 Z" /></g></g><g
       id="g26"><g
         clip-path="url(#clipPath30)"
         id="g28"><g
           clip-path="url(#clipPath36)"
           id="g34"><g
             id="g40"><path
               id="path48"
               style="fill:url(#radialGradient42);stroke:none"
               d="M 0,0 633,0 633,228 0,228 0,0 Z" /></g></g></g></g><g
       id="g50"><g
         clip-path="url(#clipPath54)"
         id="g52"><path
           id="path58"
           style="fill:#bfbfbf;fill-opacity:1;fill-rule:evenodd;stroke:none"
           d="M 561,207.0947 538.5064,186.7405 506.9053,180.0474 516.0128,153 506.9053,125.9527 538.5064,119.2596 561,98.90535 l 22.4935,20.35425 31.6011,6.6931 -9.1074,27.0473 9.1074,27.0474 -31.6011,6.6931 L 561,207.0947 Z M 561,225 590.939,197.9085 633,189 620.878,153 633,117 590.939,108.0915 561,81 531.061,108.0915 489,117 501.122,153 489,189 531.061,197.9085 561,225 Z" /></g></g><g
       id="g60"><g
         clip-path="url(#clipPath64)"
         id="g62"><g
           clip-path="url(#clipPath70)"
           id="g68"><g
             id="g74"><path
               id="path82"
               style="fill:url(#radialGradient76);stroke:none"
               d="M 0,0 633,0 633,228 0,228 0,0 Z" /></g></g></g></g><g
       id="g84"><g
         clip-path="url(#clipPath88)"
         id="g86"><g
           clip-path="url(#clipPath94)"
           id="g92"><g
             id="g98"><path
               id="path106"
               style="fill:url(#linearGradient100);stroke:none"
               d="M 0,0 633,0 633,228 0,228 0,0 Z" /></g></g></g></g><g
       id="g108"><g
         clip-path="url(#clipPath112)"
         id="g110"><g
           transform="matrix(7.874016e-5,0,0,-7.874016e-5,0.3058268,167.4593)"
           id="g116"><path
             id="path118"
             style="fill:none;stroke:#595959;stroke-width:12700;stroke-linecap:butt;stroke-linejoin:round;stroke-miterlimit:10;stroke-dasharray:none;stroke-opacity:1"
             d="m 515186.4,34841.95 286930.7,0 0,892212.25 423874.9,0 0,-892212.25 286931,0 0,2027485.05 -286931,0 0,-892212 -423874.9,0 0,892212 -286930.7,0 0,-2027485.05 z" /></g><path
           id="path120"
           style="fill:#000000;fill-opacity:1;fill-rule:nonzero;stroke:none"
           d="m 306.2682,96.09669 c -10.1839,0 -15.2759,-12.72021 -15.2759,-38.16064 0,-25.36263 5.2631,-38.04395 15.7894,-38.04395 10.1839,0 15.2759,12.68132 15.2759,38.04395 0,25.44043 -5.2631,38.16064 -15.7894,38.16064 z m -172.6327,14.82081 20.5391,0 0,-75.7378 c 0,-10.03613 3.6799,-15.0542 11.0397,-15.0542 4.279,0 8.0231,1.76994 11.2323,5.30982 3.2092,3.53987 4.8139,5.93221 4.8139,7.177 l 0,78.30518 20.4106,0 0,-105.846196 -20.4106,0 0,11.436526 -0.5135,0 C 175.2699,7.794287 168.338,3.437515 159.9512,3.437515 c -7.7878,0 -14.1206,2.684083 -18.9987,8.052245 -4.878,5.36817 -7.317,12.79802 -7.317,22.28955 l 0,77.13819 z m 262.159,1.7505 c 7.7021,0 13.8852,-2.7619 18.5493,-8.2857 4.6641,-5.52372 6.9961,-13.22587 6.9961,-23.10641 l 0,-76.204586 -20.539,0 0,75.737796 c 0,10.19172 -3.6799,15.28759 -11.0398,15.28759 -4.1078,0 -7.8091,-1.92553 -11.1039,-5.77661 -3.2948,-3.85107 -4.9422,-6.12671 -4.9422,-6.8269 l 0,-78.421876 -20.5391,0 0,105.846196 20.5391,0 0,-11.43653 0.5135,0 c 5.7338,8.79133 12.9225,13.18703 21.566,13.18703 z m -135.4865,0 c 3.7654,0 7.2742,-1.0503 10.5262,-3.1509 l -1.5404,-19.13867 c -2.8241,1.78939 -5.8194,2.68409 -8.9858,2.68409 -6.4185,0 -11.703,-5.25147 -15.8536,-15.7544 -4.1506,-10.50293 -6.2259,-20.57796 -6.2259,-30.2251 l 0,-42.011716 -20.5391,0 0,105.846196 20.5391,0 0,-28.59131 0.5135,0 c 4.1078,12.60351 7.5095,20.81131 10.2053,24.62351 2.6957,3.8122 6.4826,5.7183 11.3607,5.7183 z m 46.217,1.167 c 11.2109,0 20.1111,-4.9792 26.7007,-14.93752 6.5897,-9.95833 9.8845,-23.61214 9.8845,-40.96143 0,-17.34928 -3.2948,-30.98364 -9.8845,-40.90307 C 326.6361,7.11354 317.7359,2.153824 306.525,2.153824 c -11.211,0 -20.0898,4.959716 -26.6366,14.879156 -6.5469,9.91943 -9.8203,23.55379 -9.8203,40.90307 0,17.34929 3.2734,31.0031 9.8203,40.96143 6.5468,9.95832 15.4256,14.93752 26.6366,14.93752 z m 131.09,50.8808 54.6852,0 0,-19.1386 -32.0923,0 0,-47.49662 29.91,0 0,-19.13867 -29.91,0 0,-73.870606 -22.5929,0 0,159.644496 z m 102.856,2.1006 c 5.905,0 12.1951,-1.4004 18.8703,-4.2012 l 0,-19.372 c -6.1617,3.3453 -11.4248,5.018 -15.7894,5.018 -11.3821,0 -17.0731,-5.0958 -17.0731,-15.2876 0,-3.7343 0.9628,-8.2272 2.8883,-13.4787 1.9256,-5.2515 7.0175,-14.8208 15.2759,-28.70802 8.2585,-13.88721 13.6072,-24.46794 16.0462,-31.74219 2.439,-7.27425 3.6585,-13.71216 3.6585,-19.31372 0,-10.89192 -3.359,-19.74161 -10.077,-26.54907 C 547.5528,6.374445 538.845,2.970718 528.1476,2.970718 c -7.7021,0 -15.1475,2.061686 -22.3362,6.185059 l 0,21.239253 c 6.7607,-5.91276 13.3076,-8.86914 19.6405,-8.86914 4.7068,0 8.7291,1.51709 12.0666,4.55127 3.3377,3.03418 5.0065,6.69076 5.0065,10.96973 0,3.65658 -0.9414,8.09115 -2.8242,13.30371 -1.8827,5.21256 -6.9533,14.84025 -15.2117,28.88306 -8.2584,14.0428 -13.6285,24.68184 -16.1104,31.91724 -2.4817,7.2353 -3.7226,13.6149 -3.7226,19.1387 0,10.7363 3.3589,19.5082 10.0769,26.3156 6.718,6.8075 15.2974,10.2112 25.738,10.2112 z" /><g
           transform="matrix(1,0,0,-1,122.339,5.071304)"
           id="g122"><path
             id="path124"
             style="fill:none;stroke:#595959;stroke-width:1;stroke-linecap:butt;stroke-linejoin:round;stroke-miterlimit:10;stroke-dasharray:none;stroke-opacity:1"
             d="m 183.9292,-91.02539 c -10.184,0 -15.2759,12.72021 -15.2759,38.16064 0,25.36263 5.2631,38.04395 15.7894,38.04395 10.1839,0 15.2759,-12.68132 15.2759,-38.04395 0,-25.44043 -5.2631,-38.16064 -15.7894,-38.16064 z m -172.63271,-14.82081 20.53906,0 0,75.7378 c 0,10.03613 3.67992,15.0542 11.03975,15.0542 4.27897,0 8.02307,-1.76994 11.2323,-5.30981 3.20923,-3.53988 4.81384,-5.93221 4.81384,-7.17701 l 0,-78.30518 20.41069,0 0,105.8462 -20.41069,0 0,-11.43652 -0.51347,0 C 52.93088,-2.722983 45.99895,1.633789 37.61216,1.633789 c -7.78773,0 -14.1206,-2.684082 -18.99863,-8.052245 C 13.7355,-11.78662 11.29649,-19.21647 11.29649,-28.70801 l 0,-77.13819 z m 262.15901,-1.7505 c 7.7021,0 13.8852,2.7619 18.5493,8.28566 4.6641,5.52376 6.9961,13.22591 6.9961,23.10645 l 0,76.20459 -20.539,0 0,-75.73779 c 0,-10.19173 -3.6799,-15.2876 -11.0398,-15.2876 -4.1078,0 -7.8091,1.92554 -11.1039,5.77661 -3.2948,3.85107 -4.9422,6.12671 -4.9422,6.82691 l 0,78.42187 -20.5391,0 0,-105.8462 20.5391,0 0,11.43653 0.5135,0 c 5.7338,-8.79133 12.9225,-13.18703 21.566,-13.18703 z m -135.4865,0 c 3.7654,0 7.2742,1.0503 10.5262,3.1509 l -1.5404,19.13867 c -2.8241,-1.78938 -5.8194,-2.68408 -8.9858,-2.68408 -6.4185,0 -11.703,5.25146 -15.8536,15.75439 -4.1506,10.50293 -6.2259,20.57797 -6.2259,30.2251 l 0,42.01172 -20.5391,0 0,-105.8462 20.5391,0 0,28.59132 0.5134,0 c 4.1078,-12.60352 7.5096,-20.81136 10.2054,-24.62352 2.6957,-3.8122 6.4826,-5.7183 11.3607,-5.7183 z m 46.2169,-1.167 c 11.211,0 20.1112,4.9792 26.7008,14.93753 6.5896,9.95833 9.8845,23.61213 9.8845,40.96142 0,17.34929 -3.2949,30.98365 -9.8845,40.90308 -6.5896,9.919434 -15.4898,14.87915 -26.7008,14.87915 -11.2109,0 -20.0897,-4.959716 -26.6366,-14.87915 -6.5468,-9.91943 -9.8202,-23.55379 -9.8202,-40.90308 0,-17.34929 3.2734,-31.00309 9.8202,-40.96142 6.5469,-9.95833 15.4257,-14.93753 26.6366,-14.93753 z m 131.09,-50.8808 54.6853,0 0,19.1386 -32.0923,0 0,47.49662 29.91,0 0,19.13867 -29.91,0 0,73.87061 -22.593,0 0,-159.6445 z m 102.8561,-2.1006 c 5.905,0 12.1951,1.4004 18.8703,4.2012 l 0,19.372 c -6.1617,-3.3453 -11.4248,-5.018 -15.7894,-5.018 -11.3821,0 -17.0731,5.0958 -17.0731,15.2876 0,3.7343 0.9628,8.2273 2.8883,13.4787 1.9255,5.2515 7.0175,14.82082 15.2759,28.70802 8.2584,13.88721 13.6072,24.46794 16.0462,31.74219 2.439,7.27426 3.6585,13.71216 3.6585,19.31372 0,10.89193 -3.359,19.74162 -10.077,26.549074 -6.718,6.807455 -15.4257,10.211183 -26.1231,10.211183 -7.7022,0 -15.1476,-2.06168661 -22.3362,-6.185059 l 0,-21.239258 c 6.7607,5.91276 13.3076,8.86914 19.6405,8.86914 4.7068,0 8.729,-1.51709 12.0666,-4.55127 3.3377,-3.03418 5.0064,-6.69075 5.0064,-10.96973 0,-3.65657 -0.9413,-8.09114 -2.8241,-13.30371 -1.8827,-5.21256 -6.9533,-14.84024 -15.2117,-28.88305 -8.2584,-14.0428 -13.6286,-24.68189 -16.1104,-31.91725 -2.4817,-7.2353 -3.7227,-13.6149 -3.7227,-19.1387 0,-10.7363 3.359,-19.5082 10.077,-26.3156 6.718,-6.8075 15.2973,-10.2112 25.738,-10.2112 z" /></g><path
           id="path126"
           style="fill:#bfbfbf;fill-opacity:1;fill-rule:evenodd;stroke:none"
           d="M 560,182.4257 548.1284,171.5418 531.45,167.9628 536.2567,153.5 531.45,139.0372 548.1284,135.4583 560,124.5744 l 11.8716,10.8839 16.6784,3.5789 -4.8068,14.4628 4.8068,14.4628 -16.6784,3.579 L 560,182.4257 Z M 560,192 575.8011,177.5136 598,172.75 591.6023,153.5 598,134.25 575.8011,129.4864 560,115 544.1989,129.4864 522,134.25 528.3977,153.5 522,172.75 544.1989,177.5136 560,192 Z" /></g></g><g
       id="g128"><g
         clip-path="url(#clipPath132)"
         id="g130"><g
           id="g136"><g
             id="g142"><path
               id="path150"
               style="fill:url(#radialGradient144);stroke:none"
               d="M 0,0 633,0 633,228 0,228 0,0 Z" /></g></g></g></g></g></svg>